<?xml version="1.0" encoding="UTF-8" standalone="no"?>
<!-- Created with Inkscape (http://www.inkscape.org/) -->

<svg
   version="1.1"
   id="svg76"
   width="1159.5157"
   height="1592.4784"
   viewBox="0 0 1159.5157 1592.4784"
   xmlns="http://www.w3.org/2000/svg"
   xmlns:svg="http://www.w3.org/2000/svg">
  <defs
     id="defs80" />
  <g
     id="g82"
     transform="translate(-148.66635,-181.47426)">
    <path
       style="display:inline;fill:#0d0d0c;stroke:none"
       d="m 374.66635,519.06625 c -14.46,20.355 -48.904,23.301 -71,30.667 -44.001,14.667 -89.168,35.857 -122.961,68.24 -13.051,12.508 -27.709,26.865 -32.039,45.093 22.093,-6.957 42.101,-21.657 63,-31.741 19.203,-9.267 41.525,-14.843 62,-20.68 20.806,-5.933 42.158,-13.129 64,-13.579 v 1 c -15.146,5.513 -28.857,16.899 -42,25.974 -44.145,30.484 -87.604,76.723 -106.305,128.026 -8.155,22.374 -7.492,44.36 -11.695,67 7.881,-0.352 11.808,-13.777 14.777,-20 9.583,-20.082 20.816,-40.109 35.512,-57 23.407,-26.902 57.597,-49.009 89.711,-64.219 38.562,-18.264 76.10301,-30.504 106.05001,-62.82 29.5,-31.833 39.753,-76.865 16.746,-114.961 -10.564,-17.493 -32.722,-32.029 -33.756,-54 -0.617,-13.102 4.234,-31.673 13.506,-41.391 6.964,-7.3 18.583,-11.42 27.454,-15.856 23.854,-11.927 49.598,-21.293 75,-29.409 84.471,-26.988 174.968,-44.353 264,-38.255 46.719,3.2 92.275,14.389 137.00002,27.487 32.85,9.619 62.33,23.647 92.00002,40.574 6.68,3.809 26.26,12.012 28.21,19.89 1.94,7.861 -11.16,16.715 -16.21,20.76 -17.53,14.054 -33.66002,27.45 -41.56002,49.2 -6.76,18.592 -5.87,37.872 4.32,55 3.75,6.316 15.90002,15.7 8.24,22 -2.44,-7.442 -6.2,-13.577 -13,-17.866 -3.85,-2.43 -8.42,-2.757 -11.62,-6.228 -18.84,-20.422 -33.42,-40.566 -60.38002,-51.453 -13,-5.25 -28.425,-4.072 -40.942,-9.346 -5.115,-2.155 -8.942,-11.975 -13.059,-16.107 -10.07,-10.107 -21.442,-17.125 -34.999,-21.645 -62.262,-20.759 -130.131,6.731 -173.961,52.645 -8.73,9.146 -15.368,20.085 -21.612,31 -2.746,4.801 -4.639,11.747 -8.817,15.486 -4.527,4.051 -13.173,5.434 -18.61,8.718 -19.496,11.773 -43.354,29.77 -50,52.796 -14.83,-10.447 -27.379,-26.996 -37.333,-42 -3.025,-4.56 -6.902,-16.661 -13.655,-16.083 -10.36,0.887 -10.59,26.639 -11.1,34.083 -1.938,28.302 7.082,77.049 35.088,91 -6.773,20.815 -8.823,43.18 -6.286,65 0.536,4.606 -0.744,15.447 -6.898,16.369 -4.812,0.721 -13.672,-10.241 -16.816,-13.37 -15.45,-15.376 -30.427,-32.563 -43.525,-49.999 -3.453,-4.598 -12.497,-22.437 -20.196,-17.954 -4.708,2.741 -3.286,11.448 -3.279,15.954 0.026,16.018 3.746,32.669 8.141,48 12.505,43.615 27.032,87.836 54.011,125 10.483,14.441 24.994,31.748 42.848,37 -5.736,7.611 -11.81,14.516 -14.239,24 -10.655,41.592 34.373,78.258 66.239,96.00005 v 1 c -3.164,1.91 -7.146,5.74 -11,5.79 -6.677,0.09 -12.568,-5.921 -20,-5.775 -10.92,0.215 -15.859,7.655 -25.039,10.645 -3.698,1.21 -8.993,-0.81 -12.961,-0.62 -9.702,0.46 -20.468,6.3 -25,14.96 -14.784,-5 -40.784,2.94 -40.813,22 -0.014,9.21 7.562,15.64 11.813,23 -10.468,3.02 -20.167,9.5699 -30,14.2199 -21.522,10.17 -43.011,20.62 -65.00001,29.77 -13.617,5.66 -27.308,11.09 -41,16.56 -5.329,2.13 -12.43,3.27 -16.945,6.88 -16.376,13.08 3.389,46.44 18.945,50.93 11.031,3.19 26.72,-7.26 37,-11.17 32.38801,-12.31 63.49101,-28.4 96.00001,-40.19 -5.76,27.92 0.114,76.61 36,82.8 21.701,3.74 42.516,-11.44 57,-25.8 2.294,29.06 11.694,53.72 29.127,77 6.021,8.04 12.913,18.82 22.873,22 l -43.439,81 -20.561,37 c -18.094,-11.97 -33.505,-25.27 -54,-33.55 -8.045,-3.25 -16.556,-5.43 -25,-7.33 -3.498,-0.79 -8.67,-0.46 -11.502,-2.86 -7.527,-6.38 -12.869,-21.06 -18.976,-29.26 -11.116,-14.93 -26.61,-27.95 -42.522,-37.55 -20.36501,-12.29 -42.73301,-19.42 -64.00001,-29.71 -34.59,-16.73 -67.352,-37.87 -93.961,-65.74 -21.865,-22.91 -30.779,-53.32 -48.039,-79 l -3,1 c 4.34,23.38 3.724,45.95 12.425,69 19.542,51.77 63.053,96.71 107.575,127.86 12.941,9.06 26.338,19.03 41,25.14 v 1 c -42.346,-5.36 -88.049,-17.3 -127,-35.03 -13.677,-6.22 -26.979,-13.65 -40,-21.12 -6.032,-3.46 -12.773,-8.83 -20,-7.85 l -3,-2 c 4.481,18.87 21.097,34.75 35,47.17 34.732,31.01 78.098,51.53 122,66.16 21.942,7.32 53.999,10.16 69.00001,29.67 -7.85301,1.87 -15.58501,6.04 -22.00001,10.9 -5.409,4.09 -10.336,8.84 -14.6,14.1 -6.031,7.45 -11.71,15.25 -13.1,25 -3.162,22.18 11.688,44.36 10.661,67 -1.175,25.86 -30.463,41.63 -29.364,68 0.801,19.23 16.855,29.07 31.403,39.28 32.715,22.97 70.17301,42.24 108.00001,55.38 76.161,26.44 155.461,48.51 236,56.17 118.314,11.26 240.96802,-9.31 352.00004,-49.88 33.75,-12.34 65.96,-25.22 96,-45.28 9.9,-6.62 26.91,-15.37 27.91,-28.67 1,-13.29 -1.42,-27.59 -8.37,-39 -7.44,-12.21 -18.92,-22.49 -22.02,-37 -6.1,-28.54 4.19,-60.82 -24.52,-80.11 -4.34,-2.91 -8.98,-5.44 -14,-6.89 11.47,-37.74 60.07,-46.27 92,-62.25 46.86,-23.44 90.76,-61.53 112.35,-109.75 3.19,-7.14 7.81,-13.27 9.65,-21 -5.86,1.74 -9.7,7.84 -14,11.96 -7.67,7.36 -16.51,13.79 -25,20.17 -35.56,26.68 -79.69,56.85 -126,54.87 v -1 c 15.3,-7.09 27.94,-27.28 37,-41 25.19,-38.19 52.32,-85.38 56,-132 -14.45,11.94 -23.79,34 -35.13,49 -20.15,26.66 -43.93,50.49 -69.87,71.54 -24.9,20.2 -53.23,37.12 -81,53.04 -21.32,12.22 -43.79,22.5 -55.74002,45.42 -20.17,38.7 5.25,75.64 35.74002,99.12 7.83,6.03 27.71,19.24 14,28.79 -137.18004,95.5 -316.17104,96.79 -472.00004,56.72 -32.072,-8.25 -63.271,-18.89 -94,-31.18 -17.012,-6.81 -34.988,-13.87 -49.945,-24.68 -18.874,-13.64 -19.849,-48.5 -7.27,-65.77 1.645,-2.26 4.228,-6.12 7.5,-5.03 6.16,2.06 12.286,8.89 17.715,12.51 12.521,8.36 25.768,15.61 38,24.38 14.038,10.07 19.975,27.38 33.004,38.85 29.773,26.21 78.359,31.84 109.992,5.82 9.693,-7.97 17.695,-19.7 17.989,-32.53 0.136,-5.92 -3.231,-13.44 -1.588,-19 7.96,-26.95 34.62,-48.02 53.603,-67 6.396,-6.4 14.608,-18.49 23,-22.01 5.952,-2.49 21.591,5.51 28,7.11 18.704,4.68 37.022,3.71 56,2.9 l -3,21 c -35.142,0.73 -73.523,20.25 -79.675,58 -0.933,5.72 1.242,10.45 1.639,15.98 0.493,6.89 -14.308,11.82 -4.816,19.32 5.541,4.37 15.091,5.24 21.852,5.79 15.839,1.27 32.167,1.77 48,0.08 26.309,-2.82 62.735,-3.94 84.999,-19.96 22.651,-16.29 24.865,-57.01 29.251,-82.21 1.679,-9.65 5.024,-21.34 2.75,-31 7.021,-1.67 13.41502,-1.36 18.78602,-7.1 11.3,-12.08 10.579,-38.61 9.045,-53.9 -0.581,-5.79 -1.146,-13.06 -5.389,-17.47 -9.434,-9.81 -18.25902,-2.52 -28.44202,-3.91 -6.703,-0.91 -13.106,-4.43 -20,-5.33 -19.186,-2.49 -35.045,3.87 -51,13.71 -4.675,-9.5 -20.623,-9.81 -30,-11 v -1 c 33.115,-7.66 62.897,-32.72 72,-66 15.05,5.09 32.292,5 48.00002,5 34.51,0 69.66,-7.8 99.00002,-26.7 20.77,-13.37 37.55,-31.3 54.17,-49.31 23.02,-24.96 43.32,-52.63 56.83,-83.99 h 1 c 4.07,12.02 6.43,25.58 11.78,37 1.75,3.72 4,10.33 9.23,9.57 5.51,-0.8 7,-7 7.72,-11.57 2,-12.84 4.74,-25.39 7.9,-38 8.5,-34.0199 21.36,-67.4499 36.63,-98.9999 8.76,-18.11905 24.24,-37.57405 28.74,-57.00005 -6.38,-2.779 -11.4,1.035 -17,4.139 -10.5,5.817 -21,11.163 -31,17.862 -37.22,24.92504 -71.38,54.78905 -105,84.28905 -8.2,7.19 -15.76,15.4 -22.81,23.71 -2.09,2.46 -5.77,7.1699 -2.58,10.2399 2.96,2.86 8.27,0.13 11.39,-1.05 9.81,-3.71 19.72,-6.25 30,-8.1899 -41.91,67.3199 -95.67002,150.0599 -187.00004,139.2899 -10.615,-1.26 -21.512,-0.79 -32,-3.29 2.999,-27.28 -2.563,-56.68 -3.897,-84 -0.672,-13.79 3.309,-27.31 3.897,-41 20.978,-2.71 42.385,-12.3599 62.00002,-19.9399 49.77,-19.24 96.97002,-44.06 138.00002,-78.49805 11.21,-9.411 23.04,-19.578 32.71,-30.562 5.4,-6.121 10.06,-16.457 16.5,-21.157 7.98,-5.827 19.9,-8.513 28.79,-13.102 23.72,-12.244 57.5,-38.753 62.54,-66.741 4.38,-24.368 -19.25,-10.35 -29.54,-4 4.06,-9.891 11.66,-22.86 9.64,-33.999 -3.42,-18.828 -22.66,-3.228 -26.64,5.999 h -1 c 0.16,-7.591 1.72,-15.736 -1.65,-22.985 -4.56,-9.787 -15,-4.642 -19.6,2 -12.58,18.153 -14.68,39.179 -31.76,55.06 -3.67,3.41 -12.19,12.895 -17.83,11.927 -5.91,-1.016 1.06,-12.571 2.54,-15.002 6.79,-11.219 16.76,-19.962 23.59,-31 4.4,-7.124 1.42,-13.07 -7.29,-12.87 -34.97,0.805 -64.17,34.511 -78.74,62.87 -4.9,9.542 -6.21,23.734 -12.57,31.996 -7.24,9.391 -19.9,17.289 -29.69002,23.837 -32.21,21.533 -68.029,32.167 -105.00002,41.901 -10.28,2.707 -20.745,4.462 -31,7.277 -4.92,1.35 -10.913,4.843 -16,4.745 -4.284,-0.082 -8.804,-2.785 -13,-3.756 8.014,-24.628 16.964,-55.023 34.637,-74.722 3.595,-4.007 10.614,-5.239 15.363,-7.537 10.084,-4.878 19.385,-10.29 28,-17.495 37.98002,-31.764 71.84002,-74.23 91.00002,-120.246 32.93002,36.053 85.57002,-1.345 114.00002,-25.08 6.15,-5.137 12.13,-10.552 18,-16.009 7.62,-7.09 14.73,-14.46 21.99,-21.911 8.81,-9.052 15.87,-21.536 26.01,-29 8.69,16.848 24.73,30.899 35.14,47 5.15,7.976 10.65,20.985 18.86,26 -1.74,-21.963 -9.71,-45.254 -19.26,-65 -4.17,-8.627 -16.41,-24.416 -15.85,-34 0.34,-5.932 6.99,-13.093 10.06,-18 4.35,-6.956 8.79,-13.899 12.9,-21 1.33,-2.291 3.08,-6.588 6.25,-6.553 5.98,0.066 15.17,8.784 19.9,12.129 13.34,9.434 26.57,18.912 39,29.555 5.85,5.009 11.53,13.77 19,15.869 -7.07,-24.369 -23.5,-48.875 -39.87,-68 -6.37,-7.443 -14.13,-16.805 -23.13,-21 6.58,-22.846 24.85,-41.769 36.58,-62 4.71,-8.13 10.92,-17.401 11.42,-27 -7.99,1.068 -12.63,8.244 -17.58,14 -11.33,13.197 -23,26.326 -33.76,40 -3.3,4.191 -9.46,16.226 -14.83,17.459 -3.23,0.74 -7.32,-3.275 -9.83,-4.872 -8.15,-5.189 -16.78,-12.65 -26,-15.587 6.29,-12.197 17.86,-22.311 26.4,-33 22.64,-28.345 47.2,-54.969 68.98,-84 8.12,-10.836 30.83,-31.61 26.62,-46 -13.34,6.808 -24.07,21.748 -35,31.911 -27.92,25.967 -53.35,54.638 -81.58,80.205 -8.42,7.628 -16.95,15.282 -25,23.308 -3.56,3.563 -8.22,9.847 -13.42,10.95 -3.82,0.811 -8.64,-2.605 -12,-4.091 -10.27,-4.537 -19.67,-10.96 -30,-15.283 v -2 c 7.58,-4.502 13.78,-12.768 20,-19 18.18,-18.204 33.43,-39.172 50.98,-58 5.39,-5.79 11.22,-12.085 15.14,-19 1.22,-2.157 3.99,-7.121 0.55,-8.759 -2.88,-1.37 -6.55,1.861 -8.67,3.4 -6.75,4.888 -12.79,10.66 -19,16.193 -25.06,22.336 -52.3,46.224 -80,65.166 0.11,-9.231 7.25,-10.677 14,-15.439 6.35,-4.481 12.11,-10.559 15.62,-17.561 9.92,-19.786 2.96,-43.385 8.54,-64 3.63,-13.425 14.44,-23.35 21.39,-35 5.43,-9.119 6.64,-16.74 7.62,-27 0.55,-5.825 2.04,-12.385 -0.74,-17.91 -7.04,-14.032 -29.45,-24.9 -42.43,-32.69 -43.82,-26.304 -96.23,-42.49 -145.00002,-57.12 -34.461,-10.336 -69.44202,-15.886 -105.00002,-20.562 -61.882,-8.13601 -124.652,-12.50601 -187,-6.54801 -60.086,5.74201 -119.393,20.75601 -177,38.11001 -62.912,18.952 -134.04501,42.972 -182.91001,89.006 -29.462,27.754 10.017,55.623 17.42,82.714 7.074,25.886 -11.925,48.769 -9.336,74 1.013,9.869 6.81,18.377 12.714,26 4.33,5.591 9.403,10.21 15.112,14.359 6.31,4.585 14.251,9.302 22,10.641 m 645.00005,-5 c 2.34,-6.054 3.88,-13 8.21,-17.985 10.59,-12.167 36.36,-18.36 51.79,-21.015 0.03,3.364 1.25,7.86 -0.12,10.996 -2.35,5.377 -9.56,9.289 -13.88,13.004 -11.23,9.653 -22.73,18.973 -34,28.573 -4.24,3.608 -14.05,15.286 -20,14.51 -9.73,-1.27 -18.05002,-22.847 -19.54002,-31.083 -4.51,-25.017 12.89002,-47.649 30.54002,-62.725 11.12,-9.497 26.31,-18.689 29,-34.275 8.55,4.415 14.6,12.811 20.87,19.876 1.67,1.883 5.37,4.436 5.64,0 0.68,-11.076 -16.22,-24.154 -23.51,-30.451 -26.86,-23.202 -61.55002,-40.858 -94.00002,-54.705 -135.23402,-57.703 -295.62202,-48.997 -433.00002,-4.39 -44.413,14.421 -91.872,30.938 -128,61.674 -14.702,12.508 -31.88001,32.082 -28.00001,52.996 14.03701,-11.023 13.16601,-35.021 32.00001,-43 -4.415,10.763 -8.986,23.101 -6.946,35 3.46,20.186 18.077,32.207 29.387,48 17.915,25.014 23.54,57.468 6.493,85 -30.339,49.002 -78.83201,62.427 -126.93401,87.259 -52.581,27.142 -99.232,67.16 -118,124.741 h -1 c 12.403,-60.093 50.165,-110.478 96,-149.87 16.173,-13.899 34.624,-26.302 53,-37.119 5.037,-2.965 19.033,-8.525 19.94,-15.011 0.755,-5.404 -7.298,-6.265 -10.94,-6.714 -11.577,-1.427 -24.657,1.659 -36,3.914 -32.353,6.432 -67.9,16.542 -98,30.112 -14.067,6.341 -26.896,15.603 -41,21.688 7.128,-10.119 18.394,-18.474 28,-26.196 33.66,-27.058 73.774,-42.26 114,-56.586 27.068,-9.641 55.939,-12.098 74.00001,-37.218 l 34,20 c -5.129,-34.215 -51.06801,-30.698 -70.71101,-53.004 -5.507,-6.255 -11.327,-13.561 -12.818,-21.996 -2.61,-14.769 7.432,-31.449 9.243,-46 2.33,-18.731 -0.615,-33.578 -10.051,-50 -6.803,-11.839 -26.245,-30.502 -18.484,-46 6.8,-13.578 27.557,-23.499 39.821,-31.505 43.08201,-28.12 93.95201,-45.588 143.00001,-59.919 56.838,-16.608 115.856,-31.732 175,-37.406 110.02,-10.556 226.807,3.055 331.00004,40.138 36.07,12.838 71.36,24.896 105,43.386 10.08,5.538 28.57,12.211 35.39,21.607 2.89,3.978 0.45,11.195 -0.11,15.699 -2.47,20.087 -16.78,32.125 -26.41,49 -13.48,23.638 1.74,53.202 -11.24,76 -13.69,24.048 -51.2,24.086 -73.63,35.606 -12.44,6.389 -21.57,21.745 -15,35.394 m -288.00004,-295 c -13.828,-5.835 -25.654,4.258 -30.305,17 -6.597,18.075 -8.961,42.147 8.309,55.468 23.938,18.463 51.759,-13.883 34.464,-36.467 -11.817,-15.431 -32.974,-8.243 -38.468,8.999 h -1 c 0,-11.375 5.409,-42.009 22.956,-38.183 5.215,1.137 6.178,15.467 11.766,12.927 2.707,-1.231 2.278,-5.386 1.988,-7.744 -0.955,-7.757 -1.484,-16.538 -3.71,-24 -4.772,2.502 -5.584,6.909 -6,12 m 58,7 15,3 -6.723,19.637 -12.277,2.363 c 2.62,4.868 8.04,5.414 13,7 -1.042,4.326 -0.498,12.1 -3.742,15.397 -2.255,2.292 -8.667,0.799 -9.337,4.698 -0.569,3.312 4.994,3.795 7.079,4.15 4.655,0.794 13.228,3.324 17.678,1.012 6.397,-3.324 -3.95,-7.107 -6.678,-7.257 l 4,-17 12,2 c 0.076,9.09 3.373,20.243 12.001,24.856 11.313,6.049 17.892,-4.122 12.999,-13.856 h -2 l -1,7 c -9.486,-0.978 -13.689,-9.255 -15,-18 4.351,-0.562 8.913,-1.272 13,-2.931 11.011,-4.469 14.527,-17.317 5.895,-25.964 -9.415,-9.432 -28.191,-11.34 -40.895,-11.09 -5.271,0.104 -11.854,0.363 -15,4.985 m -191,19 15,-2 c 0.071,3.454 1.382,7.581 0.643,10.946 -1.235,5.618 -8.543,9.699 2.357,10.054 0.437,5.528 3.817,13.551 2.227,18.896 -0.726,2.441 -7.688,6.353 -4.565,9.076 3.829,3.339 15.108,-1.736 19.338,-2.738 5.94,-1.405 15.873,-1.122 20.721,-4.972 6.156,-4.889 2.477,-16.243 0.279,-22.262 h -2 l -2,17 -22,3 -4,-20 c 2.35,-0.537 22.862,-5.718 13.681,-10.254 -4.344,-2.147 -11.174,1.644 -15.681,2.254 l -3,-12 21,-6 3,11 c 3.561,-3.488 5.755,-16.101 -1.059,-17.643 -3.436,-0.777 -7.637,0.805 -10.941,1.64 -8.568,2.165 -31.305,3.59 -33,14.003 m 210,6 3,-21 c 6.653,0.286 32.955,2.968 30.263,14 -3.144,12.883 -24.603,8.1 -33.263,7 m 47,-16 c 2.413,3.926 5.519,5.3 10,6 -2.74,9.654 -3.447,14.853 -13,19 4.382,9.241 6.235,20.346 -5,26 v 2 c 10.697,4.735 47.78,12.116 42,-8 -10.34,7.399 -15.623,5.255 -28,5 l 5,-19 c 2.948,0.998 19.364,5.564 19.364,-0.12 0,-4.911 -13.749,-6.393 -17.364,-6.88 l 2,-16 20,4 -1,13 c 5.385,-2.04 12.478,-13.277 5.851,-17.583 -8.118,-5.273 -30.62,-10.069 -39.851,-7.417 m 47,12 v 1 l 9,4 c -6.218,11.676 -10.963,26.729 -11,40 -3.786,0.045 -12.335,2.788 -4.937,6.297 5.614,2.663 14.061,3.439 19.93702,1.703 -2.01402,-3.874 -4.76602,-5.233 -9.00002,-6 l 7,-31 h 1 c 3.57302,12.59 7.73202,25.269 13.60202,37 1.431,2.86 5.253,11.766 9.697,8.199 3.441,-2.758 4.221,-10.202 5.421,-14.199 3.77,-12.514 6.35,-26.115 18.28,-32 v -2 c -6.91,-3.469 -15.47,-5.225 -23,-3 l 6,4 -9,33 -16,-41 8,-1 c -3.054,-7.99 -18.40102,-8.521 -25.00002,-5 m -348,12 8,40 c -5.278,1.801 -9.516,3.799 -12,9 l 1,1 c 14.129,-2.916 34.914,-4.225 46.999,-12.249 5.896,-3.914 12.889,-12.146 8.822,-19.696 -4.703,-8.731 -22.981,-6.668 -22.821,3.945 l 17,-1 c -5.169,13.896 -19.321,14.541 -32,17 l -8,-40 c 5.24,-2.182 11.278,-4.183 13,-10 -8.071,-1.431 -19.309,1.863 -25.847,6.965 -6.346,4.953 1.932,5.954 5.847,5.035 m 172,-3.566 c 16.502,-2.882 17.635,30.286 1,32.792 -22.595,3.404 -18.843,-29.677 -1,-32.792 m -241,21.566 14,-4 6,21 c -4.638,1.115 -7.84,2.619 -10,7 l 13,-1 4.612,12.7 -3.612,9.3 c 7.349,-1.741 19.232,-4.28 22,-12 l -11,1 -4,-14 c 5.035,-1.378 9.496,-3.669 14,-6.285 9.889,-5.743 19.348,-22.956 4.995,-30.258 -11.899,-6.054 -46.139,3.097 -49.995,16.543 m 480.00002,-11 6,5 c -3.04,7.832 -4.46,15.887 -14,16 l 4,5 c -0.96,4.058 -2.29,10.513 -5.51,13.397 -1.84,1.652 -8.26,1.667 -6.99,5.437 1.51,4.497 11.61,5.61 15.5,6.825 12.4,3.869 32.68,17.12 37.24002,-1.657 0.63,-2.606 0.45,-4.472 -0.24,-7.002 l -8.00002,10 -28,-10 4,-13 c 3.16,1.218 20.95,8.164 22.08,1.737 0.86,-4.944 -15.56,-7.923 -19.08,-8.737 l 4,-15 24.00002,8 -2.00002,11 c 4.98002,-1.707 13.53002,-9.998 7.68002,-15.298 -2.96,-2.68 -8.02002,-3.414 -11.68002,-4.755 -9.14,-3.353 -19.01,-9.892 -29,-6.947 m -452.00002,24 -8,-19 c 6.368,-2.819 21.373,-8.712 27.682,-3.397 11.48,9.674 -12.84,21.177 -19.682,22.397 m -47,-1 c 1.064,13.023 9.235,23.781 11.474,36 0.534,2.915 -4.216,8.585 -0.866,10.636 3.981,2.437 20.072,-7.064 22.769,-10.269 4.159,-4.94 -3.593,-4.839 -6.372,-4.022 -2.008,0.59 -3.966,1.183 -6.005,1.655 l -13,-39 7,-7 c -6.605,-2.602 -26.872,4.801 -28.079,12.891 -0.882,5.915 11.212,0.093 13.079,-0.891 m 555.00004,3 -9,38 -12,-1 c 1.71,5.762 9.4,9.611 15,11.195 3.73,1.056 7.75,-0.16 5,-4.195 v -1 l 29,-23 v 36 h -9 c 2.51,8.744 15.86,11.827 24,12 -0.71,-4.485 -2.84,-6.371 -7,-8 4.69,-9.863 14.27,-21.482 22.43,-28.759 2.68,-2.391 8.89,-0.261 10.39,-2.855 3.22,-5.537 -13.08,-11.247 -16.76,-11.064 -5.02,0.25 -2.7,4.044 -0.06,5.678 l -17,24 c 2.09,-8.765 2.5,-21.004 1.91,-30 -0.18,-2.777 -0.43,-8.065 -4.06,-8.468 -10.39,-1.157 -23.89,18.024 -31.85,23.468 l 6,-29 c 9.99,4.42 15.35,-1.671 4,-6.3 -4.09,-1.666 -9.36,-4.083 -13.89,-3.512 -6.48,0.818 0.24,5.898 2.89,6.812 m -623.00004,22 9,-1 2.107,17.907 -6.107,10.093 c 7.696,-0.153 16.086,3.754 13.364,13.896 -0.607,2.263 -9.366,8.289 -4.031,10.407 8.989,3.568 36.058,-19.647 12.667,-14.303 l -4,-16 c 13.022,-1.761 20.097,14.49 34,11.452 12.873,-2.813 12.64,-19.742 -1,-20.452 0.781,2.346 3.159,5.465 2.988,7.941 -0.721,10.488 -18.396,-2.576 -20.988,-4.941 10.641,-5.063 21.924,-23.226 7.907,-31.911 -11.288,-6.993 -41.767,4.993 -45.907,16.911 m 21,14 c -1.118,-4.319 -5.145,-13.375 -3.356,-17.581 2.185,-5.139 19.702,-9.49 24.037,-5.816 10.842,9.189 -14.009,22.208 -20.681,23.397 m -69.00001,30 -2,-12 17,-8 c 1.102,12.547 8.74,26.274 15.00001,37 -6.78801,2.654 -9.49701,12.322 0,8.643 4.777,-1.851 11.223,-5.128 14.677,-8.968 5.93,-6.59 -3.867,-5.872 -7.677,-4.675 l -16.00001,-35 19.00001,-9 6,7 c 1.696,-4.794 2.606,-17.427 -5.044,-17.667 -4.855,-0.152 -9.974,3.759 -13.956,6.113 -10.35601,6.124 -26.58701,10.746 -34.56601,19.883 -5.336,6.11 1.257,14.884 7.566,16.671 m 916.00005,66 c -4.26,9.558 -13.13,18.062 -19.87,26 -11.29,13.307 -22.5,26.714 -33.83,40 -41.75,48.958 -84.5,97.119 -123.95,148 -13.66,17.622 -28.94,34.768 -40.34,54 -4.54,7.668 -9.42,17.533 -4.02,25.985 4.81,7.512 14.38,7.41 22.01,4.986 16.34,-5.186 30.82,-16.714 43.83,-27.496 33.62,-27.865 65.5,-62.55 91.69,-97.475 15.18,-20.228 28.72,-48.054 48.48,-64 -5.53,11.699 -13.51,22.563 -19.69,34 -36.27,67.068 -75.94,127.101 -136.31,175.199 -16.57,13.203 -41.87,30.792 -64,30.793 -9.86,10e-4 -22.09,-2.652 -27.28,-11.996 -3.61002,-6.495 3.62,-17.737 6.08,-23.996 7.74,-19.726 12.73,-40.5 17.83,-61 2.63,-10.599 3.85,-26.909 9.96,-35.985 5.74,-8.539 16.64,-15.459 24.41,-22.145 17.5,-15.058 35.11,-30.226 52,-45.959 34,-31.672 68.16,-64.066 101,-96.911 16.7,-16.704 32.72,-38.419 52,-52 m -406.00004,46 c -40.895,0 -78.555,8.138 -111,34.576 -6.608,5.385 -14.045,10.409 -19,17.424 -10.958,-2.598 -20.608,-14.753 -29,-21.866 -4.092,-3.467 -9.451,-8.613 -14.956,-5.086 -7.174,4.595 -6.764,14.48 -7.175,21.952 -0.649,11.803 -0.103,24.418 2.342,36 1.501,7.116 5.786,16.776 5.146,24 -0.401,4.528 -5.422,7.907 -8.264,11 -5.022,5.466 -9.379,12.231 -12.428,19 -13.361,29.658 -18.822,65.334 -9.805,97 2.879,10.112 6.953,23.986 15.14,31 -10.285,-36.585 -14.847,-78.044 -0.011,-114 4.581,-11.102 9.977,-24.778 20.011,-32 5.504,9.333 12.104,26.392 24,29.012 8.162,1.797 16.489,-2.294 23,-6.683 15.775,-10.634 34.245,-37.946 28.566,-58.324 -1.399,-5.022 -6.527,-6.532 -10.566,-8.969 -7.247,-4.373 -13.459,-9.714 -20,-15.036 v -1 c 46.733,-40.699 105.452,-57.382 166,-41.115 22.18302,5.96 41.62002,23.375 55.35002,41.115 3.92,5.066 11.76,12.173 12.03,19 0.27,6.531 -9.46,16.925 -13.28,22 -20.295,26.965 -43.11602,49.683 -68.10002,72.169 -61.078,54.971 -134.824,103.343 -218,114.549 -36.324,4.893 -75.192,5.408 -110,-7.529 -9.46,-3.516 -26.108,-8.867 -32.062,-17.518 -3.346,-4.862 -1.938,-13.092 -1.938,-18.671 0,-16.217 -0.8,-33.539 5,-49 21.3,5.071 51.553,-15.245 49.601,-39 -1.023,-12.445 -22.143,-13.764 -23.579,-25.015 -0.688,-5.388 6.855,-13.042 9.862,-16.985 11.096,-14.549 30.061,-35.561 49.116,-39 -3.234,11.85 -8.724,22.932 -11.338,35 -8.314,38.392 -7.535,78.092 3.198,116 4.22,14.907 7.572,35.587 20.14,46 -2.391,-23.853 -13.18,-47.912 -16.728,-72 -8.068,-54.767 2.421,-110.297 32.592,-157 29.806,-46.138 86.046,-74 140.136,-74 27.392,0 59.459,9.519 76,33 m 285.00004,-24 c -13.33,20.158 -33.2,36.789 -49.99,54 -20.38,20.894 -39.42,43.215 -58.84,65 -11.92,13.378 -22.64,28.415 -33.03,43 -4.83002,6.785 -8.72002,15.68 -15.14002,21 0.51,-6.416 1.45,-12.541 0.57,-19 -0.69,-5.116 -3.26,-12.014 -1.46,-17 8.08,-22.351 23.91002,-35.941 41.18002,-51.513 24.28,-21.9 49.58,-43.431 75.71,-63.113 13.09,-9.859 26.29,-25.517 41,-32.374 m -457.00004,55 c 7.143,3.331 12.33,10.537 17.985,15.91 9.874,9.379 20.431,18.076 31.015,26.629 4.402,3.557 16.037,8.035 18.397,12.879 6.835,14.035 -11.367,36.174 -20.397,44.489 -3.152,2.902 -8.445,7.896 -13,8.126 -8.334,0.422 -15.803,-15.903 -18.971,-22.033 -11.587,-22.416 -22.45,-60.894 -15.029,-86 m 414.00004,7 41,22 c -11.51,16.333 -29.24,30.537 -44,43.925 -4.15,3.76 -11.13,12.637 -17,13.092 -3.49,0.27 -7.15,-3.089 -10,-4.733 -8.05,-4.648 -15.8,-9.917 -24,-14.284 l 17.25,-21.576 36.75,-38.424 m -123.00002,36 c 16.61,15.166 9.64,30.179 -0.81,47 -17.13,27.591 -38.83,51.706 -62.19,74.039 -77.13002,73.748 -172.02002,143.117 -281.00002,156.676 -7.245,0.902 -14.711,1.926 -22,2.246 -35.258,1.544 -91.075,3.94 -99.8,-39.961 -1.064,-5.353 -1.552,-10.564 -0.772,-16 1.52,-10.586 7.143,-17.634 11.572,-27 11.048,2.841 21.018,11.396 32,15.308 23.183,8.258 48.476,11.211 72.996,11.524 101.883,1.299 195.74,-56.333 269.004,-122.757 33.60202,-30.465 62.96002,-59.261 81.00002,-101.075 m 180.00002,22 c 1.86,-5.469 11.61,-20.119 18.01,-20.289 6.14,-0.162 14.02,7.753 18.99,10.865 4.34,2.715 12.65,6.129 15.17,10.75 2.05,3.757 -4.52,12.063 -8.26,12.68 -3.92,0.646 -10.26,-3.402 -13.91,-4.817 -9.68,-3.75 -19.68,-7.67 -30,-9.189 m -656.00004,-18 c 11.806,21.557 25.197,38.944 43,55.961 5.644,5.395 23.083,14.049 25.292,21.223 1.264,4.107 -3,9.703 -5.205,12.815 -7.435,10.495 -22.577,20.825 -36.087,15.867 -9.858,-3.617 -16.071,-13.706 -19.999,-22.866 -7.975,-18.597 -13.122,-40.752 -11.171,-61 0.686,-7.116 0.378,-15.71 4.17,-22 m 571.00004,46 -12.42,12.745 -24.58,21.255 c 0,-2.989 0.13,-6.017 -0.09,-9 -0.26,-3.582 -2.12,-14.007 -7.83,-11.883 -3.42,1.273 -5.79,6.296 -8.17,8.883 -6.44,6.999 -14.03,15.241 -22.91002,19 7.71002,-16.301 19.92002,-32.052 31.26002,-46 2.9,-3.57 7.73,-12.34 12.75,-12.759 8.83,-0.735 24.33,13.509 31.99,17.759 m 122,-5 c -2.67,9.783 -14.93,23.057 -23,29 -5.81,-9.265 -12.84,-17.885 -20.17,-26 -2.45,-2.71 -8.39,-6.743 -7.57,-10.956 1.23,-6.388 9.38,-4.568 13.74,-3.91 13.05,1.968 24.36,8.864 37,11.866 m 75,36 -32,-22.344 -10.18,-8.84 3.18,-9.816 c 15.53,6.575 29.9,27.243 39,41 m -118,15 c -5.84,-3.378 -10.1,-8.354 -15,-12.911 -4.12,-3.835 -14.97,-8.783 -16.69,-14.182 -1.37,-4.288 11.2,-20.7 15.69,-20.7 3.1,0 5.72,4.704 7.4,6.793 4.83,6.022 20.15,19.779 19.49,28 -0.39,4.822 -7.69,9.798 -10.89,13 m -174.00002,-33 c -0.04,12.825 0.4,35.528 -6.3,46.791 -2.92,4.898 -10.12,8.077 -14.7,11.235 -11.38,7.844 -22.909,15.456 -34,23.705 -30.46002,22.655 -60.09702,49.524 -83.79302,79.284 -11.523,14.472 -21.693,30.596 -30.262,46.985 -4.123,7.886 -8.079,16.201 -4.945,25 14.804,-15.479 23.224,-38.199 35.344,-56 15.381,-22.59 36.235,-42.711 56.656,-60.714 22.46402,-19.805 47.12002,-36.7 72.00002,-53.286 20.58,-13.72 43.62002,-28.605 57.00002,-50 h 1 c -0.87,20.202 -7.82,39.536 -12.63,59 -16.55002,67.063 -46.18002,132.215 -95.37402,182 -18.40902,18.631 -38.36502,35.258 -63.99602,42.573 -9.185,2.62 -19.933,5.748 -29,0.985 -7.346,-3.86 -8.079,-10.981 -13,-16.558 0.002,20.213 15.218,31.673 35,28 -9.305,24.55 -27.738,44.307 -30,72 l -20,1 c 5.057,-10.643 13.351,-17.293 11,-30 -11.715,11.97 -19.972,26.983 -30.45,39.99604 -13.786,17.12401 -35.026,34.80401 -55.55,43.08401 -44.23,17.83 -82.212,-8.55 -118,-32.89 -12.777,-8.684 -26.163,-16.45605 -38,-26.46505 -13.944,-11.79 -31.642,-24.96 -38.189,-42.725 -5.803,-15.748 -1.798,-34.285 10.229,-45.907 4.416,-4.267 15.265,-8.045 16.982,-14.186 1.606,-5.747 -2.956,-11.959 -5.161,-16.907 -5.048,-11.327 -10.053,-22.863 -12.861,-35 l 25,5 c 1.215,28.294 22.791,47.418 51,48 -1.481,7.638 -3.1,14.525 0.019,22 0.649,1.554 4.368,9.314 6.783,5.534 1.711,-2.677 -0.847,-8.428 -0.697,-11.534 0.377,-7.78 8.177,-31.874 18.906,-30.052 5.183,0.88 10.94,9.635 14.989,12.968 11.732,9.657 27.092,15.518 42,10.084 v -1 c -15.801,-6.57 -42.546,-12.062 -50.882,-29.286 -1.663,-3.435 0.855,-8.054 0.752,-11.714 -0.15,-5.393 -2.409,-10.852 -3.87,-16 l 36,-7 c 5.343,35.671 58.582,72.135 86.471,36 17.11,-22.169 7.284,-47.37 0.529,-71 52.098,-30.724 101.405,-63.803 145.039,-106.09 16.18702,-15.688 32.06102,-31.755 46.69102,-48.91 7.6,-8.913 13.52,-20.234 22.27,-28 m 166.00002,40 v 1 c -19.66,21.347 -38.76,43.348 -64,58.396 -5.24,3.121 -22.71,14.362 -27.97,6.286 -4.59,-7.06 6.39,-20.349 10.09,-25.682 15.57,-22.486 32.42,-44.16 48.88,-66 12.69,4.044 23.81,16.814 33,26 m 42,14 19,37 c -8.81,-6.762 -29.89,-27.281 -19,-37 m -751.00004,15 c 13.496,19.84 30.054,38.054 47,55 5.765,5.766 19.517,13.094 22.868,20.209 1.408,2.989 -0.919,6.86 -1.629,9.791 -1.476,6.1 -1.673,12.759 -1.069,19 2,20.671 12.666,28.302 25.227,42.785 3.374,3.89 3.077,13.228 4.257,18.215 2.397,10.128 6.654,19.915 11.679,29 2.087,3.774 4.686,7.442 -0.392,9.978 -5.433,2.712 -10.782,-2.28 -14.941,-5.355 -11.9,-8.798 -21.491,-18.448 -29.961,-30.623 -25.471,-36.614 -40.532,-78.816 -53.698,-121 -3.475,-11.135 -6.304,-22.498 -8.26,-34 -0.707,-4.16 -2.528,-8.964 -1.081,-13 m 412,194 c 0.411,-49.629 46.879,-94.182 82.00002,-123.414 13.03,-10.844 27.65,-21.681 38.7,-34.586 3.98,-4.645 9.5,-10.601 8.3,-17 -13.23,5.155 -26.8,19.804 -38,28.804 -32.24902,25.921 -63.08702,51.359 -83.30602,88.196 -6.8,12.389 -14.164,26.709 -15.523,41 -0.614,6.458 0.965,14.963 7.829,17 m -91,-75 5,21 c -7.405,-2.021 -15.368,-4.964 -23,-1.772 -14.106,5.9 -19.538,27.069 -6.957,37.24 7.641,6.177 16.187,4.537 24.957,2.532 -4.348,9.24 -14.684,10.969 -24,10.999 -25.674,0.083 -39.125,-20.683 -48,-41.999 l 47,-17.811 25,-10.189 m 399.00004,17 c 4.74,14.998 0.58,35.125 -8.22,48 -5.69,8.323 -14.65,15.205 -17.78,25 16.94,-0.927 30.24,-28.247 38.23,-41 2.33,-3.722 7.09,-15.308 11.81,-16.079 5.13,-0.837 2.16,10.923 1.52,13.079 -3.43,11.638 -8.49,26.287 -16.35,35.7 -27.48,32.902 -87.19,14.223 -107.21,56.3 14.6,-4.214 27.34,-14.897 42,-19.921 18.38,-6.303 36.02,-5.376 53,-16.132 11.49,-7.281 21.81,-16.265 32,-25.233 6.04,-5.318 11.77,-12.122 20,-13.714 -9.55,41.268 -55.12,57.323 -85.99,77.966 -6.36,4.256 -10.71,11.591 -16.02,17.034 -11.7,11.986 -24.32,23.631 -36.99,34.575 -29.76,25.70505 -63.03,44.18505 -98.00002,61.67505 -13.06,6.53 -26.45,12.13 -40,17.55 -4.605,1.84 -11.839,6.27 -16.89602,5.67 -6.188,-0.73 -9.729,-14.5 -11.191,-19.47 -4.685,-15.93 -5.073,-31.86 -1.018,-48 1.229,-4.891 2.991,-12.70305 6.804,-16.26205 3.218,-3.003 10.15002,-3.526 14.30102,-4.622 9.862,-2.605 19.45,-5.97 29,-9.54 27.83,-10.409 54.61002,-25.489 75.57002,-46.862 10.54,-10.742 12.57,-26.389 18.74,-39.714 12.36,-26.713 38.23,-56.431 69.69,-59 -10.12,14.367 -24.38,24.778 -28.49,43 -2.39,10.577 2.48,20.416 14.49,15.877 8.79,-3.321 16.64,-11.136 22.91,-17.877 10.34,-11.112 15.88,-25.058 21.28,-39 2.74,-7.065 5.02,-16.223 12.81,-19 m -548.00004,23 c -3.522,13.314 0.098,27.802 16,30 -5.184,11.307 -15.001,9.412 -25,5.374 -15.975,-6.451 -26.851,-18.62 -27,-36.374 l 36,1 m 575.00004,26 -1,1 1,-1 m -434.00004,48 c -8.172,1.457 -16.261,6.505 -24,9.6 -20.544,8.218 -42.755,18.005 -65,20.229 -22.076,2.208 -42.745,-7.702 -64,-10.829 0,-8.965 -0.471,-17.033 -5,-25 -5.696,3.172 -3.216,15.778 -4.464,22 -2.977,14.848 -15.766,20.636 -21.536,33 9.711,1.889 16.562,-4.919 24,-10 3.619,12.538 14.047,24.822 23.015,34 27.566,28.21005 73.238,43.75005 109.985,23.68805 12.658,-6.91101 22.837,-17.20205 31.37,-28.68805 10.166,-13.683 19.568,-31.368 17.63,-49 l 30,5 c -5.448,-9.598 -24.212,-11.747 -33,-18.529 -9.567,-7.383 -9.032,-17.964 -15.972,-25.848 -5.097,-5.791 -4.91,9.403 -4.564,11.377 0.532,3.037 1.284,5.917 1.536,9 m -86,41 c 0.396,5.009 4.876,16.19 1.958,20.486 -3.75,5.52 -29.714,5.207 -33.78,-0.075 -3.711,-4.821 -3.36,-18.335 -4.178,-24.411 l 36,4 m 92,2 c -8.331,28.313 -40.621,50.45305 -69,52.82605 -8.056,0.674 -16.054,-2.177 -24,-2.826 13.723,-29.95905 60.11,-56.10605 93,-50.00005 m 452.00004,20 c -4.96,13.1 -13.8,25.178 -19.69,38.00005 -18.67,40.67 -36.54,85.3099 -42.31,129.9999 h -1 c -0.91,-11.52 -5.31,-21.51 -9.81,-32 -1.38,-3.2 -4.36,-10.53 -9.03,-8.67 -8.4,3.33 -15.4,20.17 -19.47,27.67 -11.18,20.63 -24.09,40.54 -39.86,58 -40.41,44.74 -84.70002,73.72 -145.83002,77.91 -17.31702,1.19 -33.89402,-3.18 -51.00002,-3.91 l 3,-29 c 31.335,4.05 62.14802,6.57 93.00002,-2.72 44.95002,-13.54 83.51002,-56.63 107.19002,-95.28 8.22,-13.41 16.71,-26.63 25,-40 2.27,-3.66 8.94,-10.3699 7.98,-14.9399 -0.86,-4.11 -5.92,-4.17 -9.17,-3.77 -9.46,1.16 -18.86,4.12 -28,6.71 11.43,-16.23 31.5,-29 47,-41.21 19.22,-15.13 38.3,-30.201 58,-44.67405 10.48,-7.699 21.95,-17.116 34,-22.116 m -313.00004,19 c -7.32,21.82005 -12.43,40.24005 -4.302,63.00005 2.894,8.1 8.039,15.13 11.302,23 -17.5,5.69 -33.482,11.9899 -52,6.43 -23.996,-7.2 -43.132,-41.53 -27.895,-64.43 12.982,-19.51301 50.888,-26.99405 72.895,-28.00005 m -67,10.00005 c -29.242,19.97 -27.086,59.29 0.004,81.53 10.942,8.9899 23.227,9.4299 35.996,13.4699 -22.386,60.06 17.628,128.85 -14.312,187 -10.469,19.06 -28.495,32.11 -48.688,39.31 -9.156,3.26 -23.367,3.86 -30.79,10.19 -5.874,5 -8.731,14.2 -13.095,20.5 -10.63,15.35 -21.861,30.58 -33.73,45 -28.839,35.03 -65.667,62.24 -88.385,102 h -2 c -12.719,-20.42 -32.133,-31.62 -52,-43.81 -10.135,-6.22 -26.746,-15.48 -31.258,-27.19 -1.576,-4.09 2.647,-8 4.884,-11 6.666,-8.93 12.69,-18.53 18.56,-28 14.875,-23.99 24.675,-51.18 38.123,-76 7.556,-13.95 20.584,-25.48 26.691,-40 -10.329,2 -21.194,14.76 -27,23 h -2 c -14.599,-19.16 -30.446,-37.04 -37,-61 13.235,1.95 25.862,8.01 39,10.79 43.22,9.15 102.355,11.61 136.996,-20.88 14.945,-14.02 25.416,-35.1 32.801,-53.91 2.395,-6.1 7.27,-16.96 0.784,-22.26 -3.835,-3.13 -9.454,-0.43 -13.581,0.63 -10.321,2.64 -21.363,4.79 -32,5.54 -36.889,2.6 -73.37,2.34 -110,-3.66 -9,-1.48 -29.598,-1.77 -36.382,-8.19 -2.561,-2.42 -0.386,-7.17 0.096,-10.06 0.517,-3.09 0.251,-7.85 2.299,-10.41 3.127,-3.91 20.84,-9.41 25.987,-10.59 1.943,3.75 4.502,6.89 8.001,9.35 22.654,15.9 49.084,-20.13 17.999,-29.31 -3.824,-1.13 -7.154,-0.75 -11,-0.04 2.006,-13.6399 4.832,-30.2799 -10,-37.9999 v -2 l 18,-10.37 18,7.37 c -1.327,7.71 -8.959,20.57 -2.347,27.57 4.716,4.99 16.345,2.17 22.347,1.6 18.922,-1.8 38.202,-2.37 57,-5.42 5.622,-0.91 14.256,0.9 18.721,-3.18 5.677,-5.2 5.495,-18.46 7.974,-25.57 6.192,-17.77 12.083,-29.48 25.97,-42.686 6.922,-6.58405 31.591,-5.95305 39.335,-1.314 m -196,35 v 2 c -6.451,3.01 -16.175,13 -22.957,13.2 -4.127,0.12 -5.701,-4.22 -7.355,-7.2 -5.188,-9.35 -15.352,-15.78 -19.688,-25 l 11,-6.03 13,7.29 26,15.74 m -35,17 -21.791,5.21 -12.634,-14.21 -24.575,-19 c 17.203,-23.154 53.37,8.87 59,28 m -30,10 c -18.765,12.38 -27.248,0.22 -41.004,-11.7 -7.279,-6.31 -16.12,-11.6 -24.996,-15.3 12.119,-24.8 47.001,3.01 57.83,15 3.311,3.66 6.574,7.29 8.17,12 m 188,-28 -9,31 -82,7 3,-19 c 34.661,7.95 57.988,-2.29 88,-19 m -273,29 c -0.97,5.95 -6.734,7.49 -12,9 -3.396,-4.74 -8.039,-9.99 -8.772,-16 -1.176,-9.65 9.901,-18.08 18.772,-17.95 12.438,0.2 26.237,8.66 36,15.74 2.972,2.15 18.277,14.02 13.377,18.18 -2.857,2.43 -9.108,0.48 -12.377,0.03 -11.823,-1.64 -23.37,-8.4 -35,-9 m 93,55.9999 v 1 l 6,2 c -1.345,31.24 -22.702,67.37 -48,84.82 -9.795,6.76 -20.592,13.3 -33,12.08 -25.328,-2.51 -34.233,-42.67 -31.576,-62.9 0.636,-4.84 -0.063,-11.5 2.589,-15.79 3.518,-5.68 14.248,-8.1 19.987,-10.96 12.725,-6.35 25.658,-12.62 38,-19.68 5.659,-3.23 12.608,-9.43 19,-10.72 17.695,-3.57 40.176,4.93 53,-12.85 -19.522,-2.0299 -36.961,11.62 -57,3 7.227,-15.1699 36.77,-24.8399 52,-28.8799 5.347,-1.42 12.525,-5.24 17.996,-2.78 22.783,10.26 5.675,43.5199 -8.996,51.7799 -9.29,5.24 -19.979,6.7 -30,9.88 m -29,-45.9999 c -4.626,9.14 -13.533,10.93 -7,21.9999 l -145,68.6 -48.00001,18.4 c -1.259,-15.92 -9.245,-24.56 -18,-37 33.9,-18.05 72.00801,-30.24 107.00001,-46.31 12.842,-5.9 25.445,-12.47 38,-18.9499 4.614,-2.38 9.837,-6.93 15,-7.83 9.96,-1.73 23.957,8.07 35,8.09 3.557,0.01 7.713,0.51 10.982,-1.18 5.198,-2.69 5.47,-6.83 12.018,-5.82 m 212,13.4699 c -4.969,0.81 -10.711,1.84 -14.961,4.66 -9.772,6.49 -10.644,20.44 -1.854,28.19 7.03,6.2 16.746,7.95 25.815,6.53 29.508,-4.63 17.593,-43.7299 -9,-39.38 m -4,7.93 c 15.865,-3.57 32.717,18.01 12,22.92 -15.866,3.76 -32.428,-18.33 -12,-22.92 m -122.826,3.24 c 11.864,-4.32 28.911,13.23 12.822,19.47 -12.773,4.94 -26.957,-14.31 -12.822,-19.47 m -316.06601,51.98 c 12.095,-2.01 21.283,17.16 23.223,26.38 0.896,4.26 1.169,12.27 -4.439,13.47 -11.929,2.56 -21.298,-17.47 -23.084,-26.47 -0.822,-4.14 -1.494,-12.42 4.3,-13.38 m 459.89201,7.38 c -1.447,9.66 -7.212,20.4 -11.782,29 -6.708,12.63 -15.154,26.46 -26.218,35.67 -29.416,24.51 -72.75,21.27 -108,17.5 -15.285,-1.64 -30.229,-5.54 -45,-9.75 -4.146,-1.18 -12.114,-1.81 -14.581,-5.72 -4.174,-6.62 -7.894,-27.29 -5.241,-34.7 5.065,-14.14 17.185,-24.69 20.822,-40 42.038,12.02 85.932,19.93 130,16.91 20.393,-1.4 39.912,-5.95 60,-8.91 m -584.00001,0 c 20.725,63.69 74.366,104.52 133,132.22 36.099,17.05 74.49001,29.48 99.62601,62.78 5.313,7.04 11.85,14.42 14.374,23 -12.216,-1.36 -22.136,3.55 -33,8.12 -15.888,6.69 -29.41001,10.84 -33.00001,29.88 -56.519,-23.53 -118.824,-34.87 -168,-74 -10.735,-8.55 -23.054,-17.72 -31,-29 23.102,10.93 43.54,23.18 68,31.33 28.925,9.64 58.532,20.3 89,23.72 4.814,0.54 30.23,4.15 29.079,-5.07 -0.704,-5.63 -10.778,-10.18 -15.079,-12.78 -15.524,-9.38 -30.172,-19.49 -45,-29.92 -39.509,-27.79 -71.787,-68.25 -93.247,-111.28 -5.357,-10.74 -8.774,-22.44 -11.904,-34 -1.254,-4.63 -3.935,-10.25 -2.849,-15 m 1019.00005,98 c -10.65,31.29 -32.27,62.13 -52.42,88 -5.74,7.36 -11.34,15.15 -17.67,22 -3.53,3.81 -8.44,7.27 -8.04,13 1.06,15.4 29.45,10.39 39.13,7.71 22.69,-6.28 44.41,-16.38 64,-29.46 13.47,-8.99 25.96,-20.25 40,-28.25 -28.51,49.56 -86.2,76.96 -136,99.14 -20.7,9.22 -55.76,24.28 -56,50.86 -25.85,-2.59 -51.46,-13.75 -60,-39 -5.75,13.63 1.49,28.37 14,35.21 20.08,10.97 46.82,10.91 65,25.18 22.35,17.55 9.83,45.98 14.67,69.61 3.95,19.32 18.06,31.43 27.29,48 3.88,6.95 10.39,26.56 5.43,33.91 -7.16,10.61 -29.25,18.36 -40.39,24.4 -42.13,22.84 -89.15,38.65 -135.00002,52.41 -91.67102,27.5 -194.68502,38.18 -290.00002,29.11 -63.436,-6.04 -124.839,-22.91 -186,-39.68 -46.758,-12.81 -94.935,-31.05 -136.00001,-57.1 -13.69,-8.68 -30.792,-17.86 -40.682,-31.05 -6.594,-8.8 0.863,-23.13 5.748,-31 10.809,-17.42 24.34,-33.03 22.844,-55 -1.437,-21.11 -18.189,-49.66 -5.82,-69 7.11,-11.11 17.064,-20.02 28.91,-25.74 3.443,-1.66 9.05001,-4.95 13.00001,-4.28 5.965,1.02 11.77,9.99 16,13.93 3.539,3.3 10.319,7.17 11.669,12.09 0.904,3.3 -2.487,6.51 -4.15,9 -3.943,5.9 -6.894,12.1 -8.624,19 -3.609,14.39 2.252,26.52 6.105,40 -16.154,-9.34 -21.996,-28.35 -30,-44 h -1.00001 c -8.21,19.38 14.42601,43.24 28.00001,54 41.297,32.73 92.872,51.43 143,65.86 135.861,39.11 287.585,46.35 420.00002,-10.58 31.51,-13.54 68.10002,-31.3 93.00002,-55.29 6.71,-6.46 21.64,-17.2 21.29,-27.93 -0.09,-2.9 -2.49,-3.44 -4.43,-1.68 -7.73,6.99 -13.08,15.62 -21.86,21.62 -2.6,-17.33 -19.83,-27 -32,-37.43 -15.41,-13.2 -27.51002,-31.66 -27.99002,-52.57 -0.58,-25.33 21.14002,-43.63 40.99002,-55.4 34.59,-20.51 72.49,-39.37 103,-65.89 14.71,-12.79 29.81,-26.06 42.71,-40.71 9.24,-10.49 17.5,-24.22 28.29,-33 m -485.00004,159 c 4.119,-8.83 13.139,-16.23 19.119,-24 13.339,-17.32 25.007,-34.07 33.881,-54 9.727,2.65 32.638,4.12 39.487,11.42 3.672,3.91 4.604,12.44 5.379,17.58 2.434,16.13 0.924,46.74 -16.05,55.92 -5.249,2.84 -14.993,1.08 -20.816,1.08 -20.144,0 -41.772,-1.48 -61,-8 m 124,47 c -8.022,-10.21 -29.071,-9 -41,-9 1.226,-6.51 -0.508,-16.96 1.693,-22.59 1.156,-2.95 5.944,-4.64 8.217,-6.71 4.146,-3.78 7.595,-8.94 10.534,-13.7 10.974,-17.76 6.559,-40.55 0.556,-59 15.8,-8.08 48.572,-20.31 64.436,-5.18 3.422,3.26 3.289,10.79 3.589,15.18 0.828,12.13 1.502,24.15 -2.245,36 -4.441,14.05 -21.428,20.09 -24.301,34 -4.105,19.88 -3.275,40.26 -8.9,60 -2.311,8.11 -3.993,16.79 -10.672,22.62 -20.441,17.84 -62.293,16.38 -87.907,16.38 -7.239,0 -22.446,1.48 -28.487,-3.01 -5.208,-3.88 -3.66,-14.75 -2.218,-19.99 4.572,-16.62 17.009,-29.56 32.705,-36.69 18.432,-8.37 40.14,-8.31 60,-8.31 7.963,0 16.212,1.85 24,0 m -234,94 c 5.159,-21.67 -14.183,-40.61 -30,-52.24 -13.506,-9.94 -30.65,-15.5 -43,-26.85 -34.974,-32.15 -67.089,-82.42 -118,-89.91 9.91,-7.8 30.742,-3.92 42,-1.1 21.966,5.49 43.038,16.13 60,31.27 13.51,12.07 23.928,27.08 39,37.48 17.505,12.08 37.654,19.49 51.536,36.35 15.062,18.29 27.326,51.54 -1.536,65 m -232,24 c 2.535,4.85 7.935,6.55 13,8 l -11,18 -12.00001,-3 c 0.508,3.77 3.905,6.61 4.16901,10.09 0.768,10.12 -10.76901,19.12 -19.16901,17.91 1.438,8.9 16.74,16.27 25.00001,17 -1.14,-5.53 -5.132,-8.51 -10.00001,-11 l 13.00001,-20 12,5 c -4.917,11.65 -5.028,29.72 7.004,37.26 9.877,6.19 19.299,-3.21 16.996,-13.26 -2.298,1.84 -4.93,5.71 -8.014,6.08 -10.92,1.31 -9.143,-20.05 -8.986,-26.08 12.12,3.94 34.41,1.92 27.891,-17 -4.979,-14.45 -34.41,-33.25 -49.891,-29 m 9,31 10,-18 c 8.195,2.37 17.566,8.56 21.991,16 3.959,6.66 -0.328,13.6 -7.991,13.72 -7.846,0.12 -17.7,-7.55 -24,-11.72 m 635.00004,10 -4,21 c -2.17,0 -19.25,1.88 -12.57,6.98 2.63,2.01 8.33,1.25 11.57,2.02 -1.73,7.27 0.51,15.95 -2.59,22.87 -1.29,2.88 -7.04,4.4 -6.49,7.95 0.53,3.36 5.65,3.22 8.08,2.85 7.48,-1.14 13.71,-5.63 18,-11.67 l -9,-1 2,-19 c 15.11,4.37 15.41,2.67 25,-9 l 9,14 c -2.41,1.26 -10.08,6.76 -4.68,9.39 8.2,4 21.95,-6.41 24.68,-13.39 h -11 c -2.71,-5.73 -9.52,-11.79 -10.6,-18 -0.45,-2.64 13.6,-21.83 0.6,-14.99 -1.08,0.57 -2.03,1.41 -3,2.15 -2.01,1.54 -3.71,2.78 -6,3.84 l -11,-14 11,-7 c -10.11,-2.99 -20.86,1.42 -30,5.67 -7.88,3.67 -8.23,9.22 1,9.33 m -579.00004,-11 c 0.898,5.81 4.925,8.58 10,11 -9.167,12.51 -18.878,27.93 -23,43 l -10,-1 c 1.22,7.83 22.823,21.17 30.377,14.82 5.474,-4.6 -8.781,-9.11 -11.377,-9.82 l 20,-43 c 5.71,1.86 10.373,3.99 16,1 -6.226,-7.93 -21.933,-15.54 -32,-16 m 545.00002,22 -6,48 -28,-36 c 5.57,-1.9 11.8,-4.17 14,-10 -11.37,-3.36 -22.72,2.88 -32,9 v 2 l 13,1 c 2.17,13.95 14.16,27.31 22.67,38 2.75,3.46 8.62,11.36 13.91,7.97 4.62,-2.96 3.23,-11.35 4.03,-15.97 2.55,-14.52 4.41,-30.87 8.69002,-44.9 1.85,-6.05 9.14,-5.78 9.7,-13.1 -7.84,-1.39 -16.09002,1.17 -22.96002,5.12 -6.94,4 -3.82,8.66 2.96,8.88 m 45.00002,-15 12.07,20 -5.07,12 -11,-4 2,-28 h 2 m -522.00004,64 c -5.705,2.91 -11.023,9.26 -18,8.58 -24.289,-2.39 -14.915,-32.75 -2,-41.94 7.101,-5.06 16.687,-3.64 19.972,5.36 1.002,2.74 -1.093,14.47 5.804,10.91 3.967,-2.04 8.219,-19.53 6.53,-23.57 -1.933,-4.63 -6.412,1.81 -7.306,3.66 -20.182,-26.25 -56.747,13.26 -46.12,38 4.05,9.43 13.476,17.25 24.12,16.32 8.681,-0.76 20.952,-6.95 17,-17.32 m 35,-29 -4,15 -14,-1 8.647,9.22 -4.647,22.78 c -13.146,-3.4 -15.063,4.57 -2,7.76 3.665,0.9 8.217,1.92 11.941,0.81 5.982,-1.79 1.897,-5.77 -1.941,-6.57 l 6,-22 17,12.18 15,-5.18 -4.742,19.4 -11.258,5.6 c 8.552,4.97 19.466,7.14 28,1 v -1 l -7,-3 c 2.488,-6.63 2.638,-14.52 5.703,-20.89 1.476,-3.07 21.803,-9.75 6.341,-11.34 -1.401,-0.14 -2.656,0.08 -4.044,0.23 l 3.564,-13.4 11.436,-6.6 c -6.06,-3.04 -20.223,-5.71 -26.663,-2.4 -5.723,2.95 4.563,6.89 6.663,7.4 -2,4.51 -2.772,11.9 -6.51,15.27 -8.169,7.38 -24.643,5.3 -29.173,-5.45 -1.807,-4.29 1.483,-11.23 1.683,-15.82 l 12,-3 c -4.189,-4.58 -19.434,-10.32 -25.522,-6.65 -5.927,3.56 5.208,7.3 7.522,7.65 m 290,10 11,1 1,36 -0.117,12.58 -7.883,6.42 c 7.902,3.8 16.95,1.33 25,-1 7.651,-2.22 13.997,-5.29 19.91,-10.73 25.81302,-23.76 5.258,-60.07 -27.91,-52.62 -6.949,1.56 -17.347,1.38 -21,8.35 m -217,1 c -5.916,13.75 -10.691,33.02 -11,48 -14.862,0.13 -6.229,8.75 4,8.99 6.122,0.14 13.297,-4.28 4,-6.99 l 8,-37 h 1 c 1.522,11.3 6.974,22.31 10.782,33 1.076,3.02 2.002,10.36 6.311,10.36 3.998,0 6.971,-5.61 9.034,-8.36 6.573,-8.76 13.993,-18.2 18.873,-28 h 1 c -2.658,14.11 -0.333,30.59 -16,35 1.936,6.44 19.105,9.72 24.677,5.97 5.747,-3.86 -2.766,-6.57 -5.677,-6.97 l 6,-48 8,-5 c -5.35,-2.57 -13.111,-2.89 -18.981,-1.77 -6.095,1.16 -3.996,5.53 -0.019,7.77 l -26,39 -14,-45 c 4.91,-0.78 10.256,-4.92 2.98,-7.74 -6.246,-2.42 -26.317,-0.44 -12.98,6.74 m 192,7 c 0,14.02 -0.109,29.48 4,43 -14.211,-10.01 -22.634,-31.77 -38,-39 v -2 c 5.048,-2.87 1.594,-6.17 -3.001,-6.81 -3.735,-0.52 -10.387,-1.1 -13.662,1.13 -5.517,3.75 4.086,6.45 6.663,6.68 l 2,45 c -2.721,0.22 -16.912,2.62 -11.377,7.91 6.387,6.11 23.733,0.46 26.377,-6.91 l -8,-1 -3,-37 c 10.161,11.91 18.941,24.42 31,34.7 2.927,2.5 10.419,9.4 14.682,7.16 3.741,-1.96 2.43,-10.41 2.279,-13.86 -0.628,-14.34 -0.961,-28.6 -0.961,-43 3.941,-0.8 5.843,-2.1 7,-6 -7.48,-0.94 -15.992,-0.7 -22.938,2.8 -8.754,4.42 2.967,7.17 6.938,7.2 m 47,39 -4,-48 c 10.477,-0.09 20.59,-2.47 28.867,6.1 16.304,16.9 -7.688,40.39 -24.867,41.9 m -138,-46.47 c -7.065,1.68 -9.302,7.03 -13.594,12.01 -12.926,15.01 -22.637,53.99 7.594,57.29 3.224,0.35 6.833,0.4 10,-0.36 20.438,-4.94 26.602,-35.96 22.471,-53.47 -2.599,-11.01 -15.525,-18.06 -26.471,-15.47 m -15,21.47 h 1 c 2.533,10.66 10.272,19.93 22,18 -3.726,-7.64 -14.463,-10.97 -13.772,-21 0.989,-14.35 19.108,-12.13 23.369,-1 4.884,12.76 0.017,33.19 -11.686,40.85 -14.548,9.52 -24.196,-7.6 -23.896,-19.85 0.14,-5.76 1.432,-11.47 2.985,-17 m 201,37 c 8.20902,0.95 17.44702,-9.57 14.09202,-17.89 -2.414,-5.99 -7.63,-2.34 -9.192,1.91 -0.72502,1.97 -1.36202,3.99 -2.03902,5.98 -1.117,3.28 -1.921,6.66 -2.861,10 z"
       id="path929" />
  </g>
</svg>
